<?xml version="1.0" encoding="UTF-8" standalone="no" ?>
<!DOCTYPE svg PUBLIC "-//W3C//DTD SVG 1.1//EN" "http://www.w3.org/Graphics/SVG/1.1/DTD/svg11.dtd">
<svg xmlns="http://www.w3.org/2000/svg" xmlns:xlink="http://www.w3.org/1999/xlink" version="1.1" width="500" height="500" viewBox="0 0 500 500" xml:space="preserve">
<desc>Created with Fabric.js 4.6.0</desc>
<defs>
</defs>
<g transform="matrix(1.67 0 0 0.5 160 130)" id="ZdAgTY-I7O7DxveOoLMvN"  >
<path style="stroke: rgb(161,203,195); stroke-width: 0; stroke-dasharray: none; stroke-linecap: butt; stroke-dashoffset: 0; stroke-linejoin: miter; stroke-miterlimit: 4; fill: rgb(69,48,204); fill-rule: nonzero; opacity: 1;" vector-effect="non-scaling-stroke"  transform=" translate(0, 0)" d="M -60.05339 -60.05339 L 60.05338 -60.05339 L 60.05338 60.05338 L -60.05339 60.05338 z" stroke-linecap="round" />
</g>
<g transform="matrix(1.67 0 0 0.5 339.71 390.03)" id="j6pOuRtAS3IBxEDRW3KKi"  >
<path style="stroke: rgb(161,203,195); stroke-width: 0; stroke-dasharray: none; stroke-linecap: butt; stroke-dashoffset: 0; stroke-linejoin: miter; stroke-miterlimit: 4; fill: rgb(39,22,145); fill-rule: nonzero; opacity: 1;" vector-effect="non-scaling-stroke"  transform=" translate(0, 0)" d="M -60.05339 -60.05339 L 60.05338 -60.05339 L 60.05338 60.05338 L -60.05339 60.05338 z" stroke-linecap="round" />
</g>
<g transform="matrix(0.79 0 0 3.44 230 290)" id="gPCxZgs1q7UzjCdmzyVxL"  >
<path style="stroke: rgb(78,153,79); stroke-width: 0; stroke-dasharray: none; stroke-linecap: butt; stroke-dashoffset: 0; stroke-linejoin: miter; stroke-miterlimit: 4; fill: rgb(69,48,204); fill-rule: nonzero; opacity: 1;" vector-effect="non-scaling-stroke"  transform=" translate(0, 0)" d="M -37.81139 -37.81139 L 37.81139 -37.81139 L 37.81139 37.81139 L -37.81139 37.81139 z" stroke-linecap="round" />
</g>
<g transform="matrix(1.24 0 0 1.24 150 370)" id="T_QeU_1XNS9Bc6HcMegx7"  >
<path style="stroke: none; stroke-width: 1; stroke-dasharray: none; stroke-linecap: butt; stroke-dashoffset: 0; stroke-linejoin: miter; stroke-miterlimit: 4; fill: rgb(69,48,204); fill-rule: nonzero; opacity: 1;" vector-effect="non-scaling-stroke"  transform=" translate(-40, -40)" d="M 0 0 L 80 80 L 0 80 L 0 0 z" stroke-linecap="round" />
</g>
<g transform="matrix(0.79 0 0 3.44 270.13 290.07)" id="C1kLe6EdCH5zRhdeHVp9J"  >
<path style="stroke: rgb(78,153,79); stroke-width: 0; stroke-dasharray: none; stroke-linecap: butt; stroke-dashoffset: 0; stroke-linejoin: miter; stroke-miterlimit: 4; fill: rgb(39,22,145); fill-rule: nonzero; opacity: 1;" vector-effect="non-scaling-stroke"  transform=" translate(0, 0)" d="M -37.81139 -37.81139 L 37.81139 -37.81139 L 37.81139 37.81139 L -37.81139 37.81139 z" stroke-linecap="round" />
</g>
</svg>